<?xml version="1.0" encoding="UTF-8"?>
<svg id="Isolation_Mode" data-name="Isolation Mode" xmlns="http://www.w3.org/2000/svg" viewBox="0 0 1655.32 1313.26">
  <g>
    <path d="M975.54,520.26l13.83,67.9-22.32,20.75-99.97,15.72h-111.28s-157.18-26.09-157.18-26.09l-7.23-28.29,35.52-73.88,78.9,15.09,115.37,5.97,77.65-3.46,56.9-7.59,16.98-2.47,2.83,16.35ZM849.3,324.49c-22.88,22.88-52.31,40.01-84.57,48.23-43.66,12.19-98.57,5.78-145.19-14.9,10.45,44.46,16.3,90.28,11.46,136.01,107.12,15.06,218.34,14.03,326.36,9.92-4.58-41.68,3.21-82.8,12.99-122.78-44.69-5.31-88.31-24.08-121.05-56.48ZM1114.43,161.26c-14.3-9.82-30.19-14.46-46.53-15.83l-11.69-.23c-31.53.5-64.43,12.43-91.75,26.09,21.88-18.07,50.2-33.77,79.96-40.38-15.03-17.27-31.76-32.33-49.87-44.86-85.71-55.61-229.77-74.05-313.64-4.31,21.88,7.85,42.99,19.54,62.09,34.94-59.75-29.83-139.98-43.12-192.92,5.31-15.53,14.46-31.43,29.89-41.35,49.77-8.35,16.8-9.95,35.77-9.19,53.54,1.7,28.76,17.1,49.67,38.44,64.6-.33-.73-.84-1.34-1.2-2.07-18.6-40.75.53-90.02,30.36-117.44-20.07,32.06-33.9,75.29-14.43,109.39,7.52,14.1,20.54,24.05,34.77,33.17l15.5,9.09c47.46,26.89,103.31,38.41,156.88,28.62,31.4-4.51,56.98-17.54,82.9-32.73-12.46-13.53-23.01-29.29-31.13-47.33,11.06,16.5,24.55,30.56,39.51,42.39l5.21,4.07c54.34,40.11,127.83,50.97,193.22,27.92,30.73-8.35,57.68-36.27,77.22-60.99,35.47-45.16,33.13-91.25-12.39-122.72Z" fill="#fff"/>
    <path d="M1127.06,140.65c-20.68-11.66-43.39-14.96-65.93-12.56-29.06-63.73-96.1-109.99-164.57-122.08-76.29-16.7-181.07-.6-220.48,73.88-75.38-24.98-158.55-3.01-196.53,80.43-22.98,80.73,14.2,133.34,76.12,153.18,15.23,16.47,34.47,30.06,55.98,40.65-.1,1-.2,1.97-.27,2.97-4.01,45.46-1.74,90.28-7.41,134.94-9.12,31.63-38.98,63.73-31.7,101.24,0,42.13,101.67,47.78,101.67,47.78,0,0,132.03,0,200.56,0,63.74,0,111.97-32.1,118.4-36.59.17.07.35.13.52.2.1-.23.17-.5.23-.74,15.13-45.19-15.33-90.35-14.26-124.82-1.3-31.63-.84-64.5-2.14-97.53,26.69,2.44,53.51.13,78.43-7.08,58.25-14.63,109.19-68.71,124.32-126.42,11.42-42.75-15.9-86.94-52.94-107.45ZM968.17,591.46c-3.98.63-7.95,1.24-11.96,1.8,0,0-77.94,24.55-165.83,24.55-87.89,0-189.15-33.57-189.15-33.57-2.54-28.86,21.58-53.71,28.56-83.27,104.04,39.31,221.51,38.71,328.53,10.39,5.68,26.45,17,55.11,9.85,80.1ZM957.35,503.75c-108.02,4.11-219.24,5.14-326.36-9.92,4.84-45.73-1-91.55-11.46-136.01,46.63,20.68,101.54,27.09,145.19,14.9,32.27-8.22,61.69-25.35,84.57-48.23,32.73,32.4,76.35,51.17,121.05,56.48-9.79,39.98-17.57,81.1-13,122.78ZM1126.82,283.97c-19.54,24.72-46.49,52.64-77.22,60.99-65.4,23.05-138.88,12.19-193.22-27.92l-5.21-4.07c-14.96-11.82-28.46-25.89-39.51-42.39,8.12,18.04,18.67,33.8,31.13,47.33-25.92,15.2-51.5,28.22-82.9,32.73-53.58,9.79-109.42-1.74-156.88-28.62l-15.5-9.08c-14.23-9.12-27.26-19.07-34.77-33.17-19.47-34.1-5.65-77.32,14.43-109.39-29.83,27.42-48.97,76.69-30.36,117.44.37.73.87,1.34,1.2,2.07-21.34-14.93-36.74-35.84-38.44-64.6-.77-17.77.84-36.74,9.19-53.54,9.92-19.87,25.82-35.3,41.35-49.77,52.94-48.43,133.17-35.14,192.92-5.31-19.1-15.4-40.21-27.09-62.09-34.94,83.87-69.74,227.93-51.3,313.64,4.31,18.1,12.53,34.84,27.59,49.87,44.86-29.76,6.61-58.08,22.31-79.96,40.38,27.32-13.66,60.22-25.59,91.75-26.09l11.69.23c16.33,1.37,32.23,6.01,46.53,15.83,45.53,31.46,47.86,77.56,12.39,122.72Z" fill="#28abe2"/>
  </g>
  <g>
    <path d="M1598.4,1084.03c-12.49-4.52-24.99-8.41-37.08-11.55-11.58-3.03-22.24-5.78-32.08-8.32-1.97-.51-3.43-1-4.49-1.4-.03-1.97.2-5.37,1.37-10.63,2.4-10.89,7.72-23.33,15.81-36.99,5.52-8.69,12.92-18.9,22.01-30.3,9.35-11.75,18.93-22.93,28.5-33.22,9.35-10.06,18.07-18.53,25.82-25.13,2.34-2,4.12-3.4,5.43-4.4,15.24,0,31.62-10.86,31.62-34.65,0-21.58-10.44-34.16-19.21-40.94-10.81-8.32-23.36-12.49-37.25-12.49-1.6,0-3.17.14-4.75.46-5.86,1.17-11.98,4-27.62,15.52-10.32,7.6-21.98,17.64-34.74,29.82-12.52,12.01-25.56,25.87-38.77,41.14-13.84,16.01-25.67,32.82-35.19,49.94-9.92,17.81-16.81,35.76-20.56,53.32-1.74,8.12-2.37,16.07-1.97,23.81-6.72-3.74-13.64-5.66-20.7-5.66-3.77,0-8,.69-15.64,2.6l-10.58,2.66c1.72-3.4,3.54-6.86,5.52-10.38,10.46-18.75,21.38-36.68,32.48-53.29,11.15-16.72,21.21-30.96,29.93-42.37,3.17-4.12,5.52-7.15,7.26-9.38,7.52-1.97,14.04-6.43,18.55-12.89,9.75-13.95,3.77-30.68,1.83-36.19-.06-.14-.11-.26-.14-.4-2.72-7.23-7.83-14.64-16.1-23.27-13.04-13.58-26.27-16.44-35.08-16.44-5.43,0-10.15.94-14.38,2.86-6.78,2.97-13.07,8.86-24.24,22.56-7.18,8.81-15.04,19.18-23.47,30.85,2.32-22.21,4.52-41,6.63-55.86,2.2-15.72,4.06-28.02,5.52-36.51,1.57-9.12,2.63-16.3,3.2-21.41,1-9.03.34-15.67-2.17-21.53-2.12-4.92-5.46-9.35-10.23-13.49-4.57-4.89-10.55-9.06-18.13-12.69-8.49-4.03-16.92-6.09-25.02-6.09-10.49,0-19.76,3.74-26.85,10.81-3.23,3.23-5.46,7.35-6.46,11.81-1.09,4.8-2.6,12.44-4.69,23.33-.03.17-.06.34-.09.54-1.54,9.21-3.49,22.36-5.78,39.05-2.26,16.67-4.95,39.17-7.95,66.84-2.37,21.56-4.57,44.08-6.6,67.5-4.43-6.4-9.55-12.46-15.38-18.15-13.92-13.64-30.48-24.16-49.2-31.33-1.74-.8-3.52-1.57-5.23-2.29-6.09-2.49-12.06-4.32-17.93-5.52-5.29-1.09-10.49-1.6-15.58-1.6-9.52,0-17.41,1.77-23.93,4.52-16.52.43-33.11.23-49.49.63-3.43.14-9.23-.26-12.92-.37-4.32-.31-8.69-.54-13.12-.8-12.12-5.63-24.93-8.49-38.22-8.49-6.09,0-11.95.6-17.58,1.8-4.86,1-9.49,2.46-13.95,4.35-1.14.46-2.29.97-3.4,1.52-8.72,4.23-16.58,9.03-23.41,14.29-6.83,5.29-12.38,10.38-16.95,15.61-.14.14-.26.29-.37.4-7.03,1.74-13.29,5.4-18.38,10.78.91-13.01,1.57-26.56,1.94-40.54.8-29.36-.94-58.15-5.15-85.57-4.35-28.1-11.66-53.75-21.78-76.19-11.64-25.76-28.79-44.14-50.95-54.66-11.32-5.6-23.73-8.43-36.85-8.43-12.58,0-24.62,2.66-35.82,7.92-10.09,4.75-19.64,11.09-28.39,18.9-8.09,7.2-15.7,15.38-22.59,24.3-6.66,8.61-12.61,17.53-17.64,26.44-20.5,35.28-36.48,74.02-47.51,115.21-.66,2.46-1.29,4.89-1.92,7.35-6.06-6.8-14.21-11.72-24.33-14.55-2.2-.63-4.32-1.14-6.35-1.6-5.49-8.92-13.21-16.52-23.1-22.73-13.89-8.66-28.05-13.04-42.11-13.04-17.53,0-33.91,5.89-48.74,17.55-12.52,9.86-24.04,22.64-34.19,38.02-9.41,14.27-18.27,30.45-26.27,48.06-2.54,5.6-4.97,11.24-7.29,16.87,2.2-31.02,5.4-64.3,9.55-99.46,1.43-11.04,2.83-22.07,4.15-32.79.49-4.12.91-7.09,1.26-9.23,3.09-3.89,5.37-8.55,6.58-13.81,1.57-6.83,1.69-17.7-6.83-30.45-.14-.26-.31-.49-.46-.69-5-6.95-12.26-12.64-21.7-16.95-8.63-3.92-17.3-5.92-25.73-5.92-11.46,0-21.5,4-29.08,11.58-.66.66-1.23,1.32-1.8,2.03-4.46,5.55-7.6,12.89-12.38,37.54-3.09,15.98-6.2,36.51-9.26,61.01-2.69,21.47-5.17,45.57-7.46,71.73-10.35-12.92-29.36-27.39-62.64-27.39h-4.52c-.51,0-1.09,0-1.6.03-10.52.71-19.41,2.77-27.07,6.23-6.49,2.89-12.38,6.29-17.55,10.06-4.37,3.2-8.09,6.2-11.38,9.18-.03,0-.46.11-.63.17-18.58,5.06-32.68,19.04-41.91,41.57-7.09,17.24-11.95,36.97-14.44,58.66-2.43,20.93-2.97,42-1.63,62.61,1.4,21.38,4.09,37.91,8.23,50.52.91,2.97,1.92,5.92,3,8.75-17.1,10.21-35.16,18.98-53.75,26.13-12.95,5-26.42,8.21-40.22,9.61-1.06-4.03-2.03-9.01-2.8-15.01-1.83-14.24-2.54-30.45-2.06-48.2.49-18.33,1.72-37.74,3.66-57.72,1.97-20.13,4.2-39.85,6.66-58.61,2.49-18.9,5-36.28,7.46-51.66,2.37-15.15,4.4-27.56,5.95-36.94,5.52-31.02,10.03-56.58,13.52-76.65,2.69-15.32,4.37-22.24,5.2-25.07,7.03-9.21,9.15-20.38,5.72-31.42-2.43-7.72-6.69-14.69-12.75-20.78-5.23-5.2-11.52-9.55-18.75-12.98-8.12-3.86-15.55-5.72-22.73-5.72h-2.23c-1.6,0-3.2.17-4.77.49-7.69,1.54-14.52,5.52-19.78,11.49-4.43,5.06-7.55,11.78-10.41,22.39-1.92,7.15-4.03,17.01-6.46,30.16-2.14,11.69-5.12,27.53-9.35,49.89-.03.06-.06.11-.06.17-6.18,33.99-11.24,62.75-15.47,87.94-4.29,25.53-7.78,48.49-10.29,68.27-2.54,19.81-4.49,37.51-5.75,52.55-1.29,15.18-2.2,28.82-2.72,40.54v.2c-1.09,32.51.46,57.21,4.77,75.53,4.66,19.93,13.21,36.88,25.42,50.43,10.44,11.81,23.21,20.1,37.91,24.62,12.78,3.97,26.82,6,41.77,6,18.75,0,38.11-2.86,57.46-8.49,18.24-5.26,35.19-11.32,50.37-18.01,15.9-6.95,28.67-13.84,39.05-21.07,2.12-1.46,4.06-2.89,5.83-4.26,5.52.94,11.29,1.43,17.27,1.43,13.49,0,25.67-2.86,36.22-8.52,9.66-5.17,18.35-12.26,25.82-21.1,5.66-6.66,10.69-14.32,15.07-22.81.69,18.38,1.86,35.71,3.46,51.77.03.2.06.4.06.57,1.74,13.98,4,24.64,6.89,32.62,2.72,7.66,12.18,25.39,40.37,25.39,4.17,0,9.32-.29,15.72-.86,13.38-1.23,23.79-7.95,28.82-18.27,8.92,4.66,18.78,7.09,29.16,7.09,7.58,0,15.5-1.72,24.19-5.26,13.87-4.66,26.87-14.81,38.6-30.16,9.49-12.35,18.44-26.19,26.67-41.17,3.23,14.89,8,26.42,14.52,35.19,6.69,9.18,14.78,15.67,23.96,19.35,7.83,3.14,15.92,4.75,24.04,4.75,9.46,0,18.18-2.09,25.96-6.2,12.29-6.52,17.38-15.29,19.47-21.53v-.06c.69,1.8,1.4,3.6,2.09,5.4,12.21,30.76,27.93,55.92,46.74,74.73,21.16,21.16,45.89,31.9,73.47,31.9,8.32,0,16.7-1,24.96-2.89.17-.03.31-.06.46-.09,8.06-2.03,16.04-5.26,23.73-9.58,8.03-4.57,15.95-11.18,23.47-19.7,6.86-7.78,13.67-17.52,20.84-29.79,6.52-11.24,14.01-25.56,22.27-42.57.57-1.23,1.06-2.46,1.46-3.72.43-1.14,1.8-4.55,5.8-13.89,3.03-7.09,6.26-14.75,9.63-22.84,8.66,18.15,19.84,32.08,33.45,41.45,17.07,11.84,34.34,17.84,51.32,17.84,19.61,0,37.42-7.09,51.57-20.53,11.72-11.12,21.84-24.96,30.1-41.17,2.32-4.52,4.49-9.15,6.6-13.84.97,2.69,2.03,5.32,3.17,7.95,6.92,16.04,16.75,29.7,29.25,40.57,14.21,12.44,32.33,18.75,53.83,18.75,4.23,0,9.35-.63,16.04-2,1.26-.26,2.49-.6,3.72-1.06,17.24-6.46,32.25-20.3,44.63-41.11.71-1.23,1.4-2.49,2.09-3.72-.2,13.49-.31,26.07-.31,37.31,0,13.92.34,20.1.77,23.7.63,17.61,9.75,26.53,15.24,30.33,7.35,5.09,16.41,7.69,26.9,7.69,5.89,0,12.29-.83,19.53-2.54,5.35-1.29,10.03-2.43,14.12-3.43,10.75-2.69,18.33-12.35,18.33-23.41,0-25.64.09-45.57.34-60.92.26-16.38.37-28.93.37-38.37,0-1.09.03-2.14.03-3.17,2.37.14,4.86.2,7.46.2,25.44,0,50.89-3.92,75.65-11.64.6-.17,1.17-.37,1.74-.63,4.06-1.6,7.95-3.63,11.58-6.09,4.83-3.2,8.52-7.49,10.92-12.49,2.43,2.54,4.95,4.92,7.6,7.15,1.34,1.14,2.72,2.26,4.12,3.32-3.83,1.6-7.26,3.97-10.12,7.06-6.26,6.72-9.01,15.72-8.18,26.7,1.63,22.56,22.67,35.34,29.56,39.54,1.12.66,2.29,1.26,3.52,1.74,3.57,1.46,6.86,2.54,9.89,3.29,4,1,8.75,1.49,14.92,1.49,14.21,0,29.9-.8,46.63-2.37,17.7-1.66,33.45-4.66,46.83-8.92,17.01-5.43,29.02-13.27,36.68-23.93,5.46-7.55,15.52-27.96-8.26-54.52-9.21-10.52-21.76-18.75-37.34-24.39ZM296.12,1023.77c-.97,7.6-2.52,17.18-4.63,28.47-2.09,11.06-4.89,22.3-8.35,33.36-1.4,4.43-2.92,8.75-4.57,12.87-2.37-14.18-3.57-28.1-3.57-41.4,0-14.55.77-27.13,2.34-37.39.57-3.8,1.06-6.49,1.4-8.38.94-1.06,1.89-2.17,2.83-3.4,2.97-3.8,5.2-7.92,6.66-12.26,2.4-3.83,5.09-7.43,8.06-10.78.37,4.75.66,9.75.8,14.92.23,8.06-.11,16.15-.97,23.99ZM568.43,940.57c-3.66,10.72-8.49,23.81-14.35,38.97-5.8,15.04-12.78,31.96-20.7,50.26-4.92,11.35-9.86,22.64-14.84,33.76,4.29-20.81,9.69-40.77,16.15-59.64,8.95-26.13,19.38-49.43,31.08-69.3.83-1.43,1.66-2.8,2.49-4.12.63,1.43,1.31,2.8,2.09,4.15-.49,1.63-1.12,3.57-1.92,5.92ZM864.49,1084.41c-1.63,4.6-3.63,10.52-6,17.64-3.09,8.18-7.55,19.84-13.29,34.71-5.8,14.95-12.41,30.39-19.67,45.86-6.98,14.92-14.52,28.62-22.41,40.65-2.83,4.32-5.23,7.4-7.18,9.58-5.17-5.6-10.06-13.04-14.64-22.21-8-16.01-15.41-36.51-21.96-60.81-8.52-32.25-13.44-64.9-14.64-97.03-1.2-32.62.14-64.18,3.97-93.83,3.8-29.53,9.83-57.49,17.9-83.08,8.03-25.59,17.21-48.14,27.25-67.04,9.78-18.38,19.84-33.28,29.93-44.23,2.17-2.4,4.2-4.4,6.06-6.06,1.6,4.43,3.14,9.12,4.63,14.04,2.54,8.29,4.63,16.41,6.23,24.16,2,9.72,2.74,14.81,3.03,17.38.03.09.03.14.03.23,1.92,15.78,3.12,32.36,3.6,49.29.49,17.1.23,34.39-.71,51.37-.97,17.07-2.69,33.94-5.06,50.15-2.34,15.87-5.37,30.7-9.06,44.11-2.89,9.26-4.57,15.87-5.23,20.67-1.2,8.21.06,16.07,3.6,22.93,4.03,9.09,11.78,16.41,22.99,21.79,4.2,2.03,8.38,3.63,12.46,4.75-.57,1.52-1.17,3.17-1.83,5ZM1046.83,1015.25c-2.34,20.61-6.8,41.17-13.27,61.04-6.23,19.13-13.44,36.34-21.44,51.2-3.89-12.06-6.72-24.59-8.46-37.25-1.8-12.92-2.37-25.82-1.69-38.28.63-11.84,2.37-22.1,5.17-30.53.31-.94,1.74-4.63,6.92-12.78,4.09-6.46,9.06-13.06,14.78-19.67,5.15-5.98,10.46-11.26,15.81-15.72,3.32,11.03,4.06,25.13,2.17,42ZM1202.67,1045.38c-1.34,8.15-3.34,17.24-5.89,27.02-2.09,7.95-4.6,15.92-7.46,23.73-.49-4.43-.89-8.89-1.2-13.32-.94-13.24-1.32-25.39-1.06-36.14.29-13.52.69-19.93,1-22.93,0-.06.03-.14.03-.23.91-10.06,2.14-18.87,3.72-26.16,1.23-5.89,2.54-10.95,3.89-15.04,2.26,3.2,4.12,7.12,5.55,11.66,2.26,7.15,3.4,15.07,3.4,23.59,0,9.72-.66,19.1-1.97,27.82Z" fill="#28abe2"/>
    <path d="M346.77,931.06c-9.78-13.03-24.71-19.56-44.76-19.56h-4.51c-7.52.51-13.8,1.88-18.81,4.14-5.02,2.26-9.4,4.77-13.16,7.52-3.76,2.76-7.03,5.39-9.78,7.9-2.76,2.52-6.15,4.27-10.16,5.27-11.04,3.01-19.69,12.17-25.95,27.46-6.28,15.3-10.53,32.72-12.79,52.28-2.26,19.56-2.76,39-1.5,58.3,1.25,19.31,3.63,34.23,7.15,44.76,3.11,10.28,7.39,19.45,12.83,27.5-6.18.94-12.22,3.55-18.09,7.85-19.06,11.54-39,21.32-59.8,29.34-20.82,8.03-42.5,12.04-65.07,12.04-5.02-9.03-8.53-21.31-10.53-36.86-2.01-15.54-2.76-32.84-2.26-51.91.49-19.05,1.75-38.86,3.76-59.43,2-20.56,4.25-40.36,6.77-59.43,2.5-19.05,5.01-36.48,7.52-52.28,2.5-15.8,4.51-28.21,6.02-37.24,5.51-31.09,10.03-56.67,13.54-76.73,3.5-20.05,6.26-31.34,8.27-33.85,3.5-3.5,4.63-7.26,3.39-11.28-1.26-4.01-3.51-7.64-6.77-10.91-3.27-3.26-7.28-6.02-12.04-8.27-4.77-2.26-8.91-3.39-12.41-3.39h-2.26c-2.52.51-4.64,1.76-6.39,3.76-1.76,2.01-3.51,6.28-5.27,12.79-1.76,6.52-3.76,15.93-6.02,28.21-2.26,12.29-5.39,28.96-9.4,50.02-6.02,33.1-11.17,62.32-15.42,87.64-4.27,25.33-7.65,47.77-10.16,67.33-2.52,19.56-4.4,36.74-5.64,51.53-1.26,14.8-2.14,27.96-2.63,39.49-1.01,30.09.38,53.16,4.14,69.21,3.76,16.06,10.4,29.34,19.93,39.87,7.52,8.53,16.55,14.42,27.08,17.68,10.53,3.27,22.06,4.89,34.6,4.89,16.55,0,33.47-2.5,50.78-7.52,17.3-5.01,33.1-10.65,47.39-16.93,14.29-6.26,25.95-12.53,34.98-18.81,6.61-4.59,10.78-8.3,12.55-11.14,7.24,2.66,15.34,4,24.31,4,9.52,0,17.8-1.88,24.82-5.64,7.02-3.76,13.28-8.9,18.81-15.42,5.51-6.51,10.27-14.16,14.29-22.94,4.01-8.77,7.52-17.92,10.53-27.46,6.51-19.05,11.53-39.87,15.05-62.44,3.5-22.57,4.01-43.5,1.5-62.81-2.51-19.3-8.65-35.47-18.43-48.52ZM320.07,1026.6c-1.01,8.03-2.63,18.05-4.89,30.09-2.26,12.04-5.27,24.07-9.03,36.11-3.76,12.04-8.4,23.07-13.92,33.1-5.52,10.04-11.79,17.3-18.81,21.82-9.03-11.02-15.05-24.94-18.05-41.75-3.01-16.8-4.51-33.1-4.51-48.9,0-15.8.87-29.46,2.63-41,1.75-11.53,3.13-17.55,4.14-18.05,1.5-1,3.13-2.63,4.89-4.89,1.75-2.26,2.88-4.63,3.39-7.15,5.51-9.52,12.28-17.92,20.31-25.2,8.02-7.26,16.04-13.92,24.07-19.93,2,2.01,3.76,5.9,5.27,11.66,1.5,5.77,2.75,12.67,3.76,20.69,1,8.03,1.62,16.68,1.88,25.95.25,9.29-.13,18.43-1.13,27.46ZM431.39,978.08c-2.01,42.38-3.01,79.87-3.01,112.46,0,32.61.49,60.44,1.5,83.5,1,23.07,1.5,40.88,1.5,53.41-1.01,3.51-4.27,5.51-9.78,6.02-5.52.49-10.04.75-13.54.75-9.53,0-15.42-3.13-17.68-9.4-2.26-6.26-4.14-15.42-5.64-27.46-2.52-25.07-3.89-52.9-4.14-83.5-.26-30.58.25-61.68,1.5-93.28,1.25-31.59,3.13-62.55,5.64-92.9,2.5-30.34,5.27-57.55,8.27-81.62,3.01-24.07,6.02-43.88,9.03-59.43,3.01-15.54,5.51-24.57,7.52-27.08,3.01-3.01,7.02-4.51,12.04-4.51,5.01,0,10.27,1.26,15.8,3.76,5.51,2.51,9.52,5.52,12.04,9.03,3.01,4.51,4.14,8.4,3.38,11.66-.75,3.27-2.39,5.4-4.89,6.39-1.01,2.52-2.14,8.91-3.39,19.18-1.26,10.28-2.63,21.19-4.14,32.72-6.02,51.15-10.04,97.92-12.04,140.29ZM633.74,1001.4c.49-9.27,1.13-17.42,1.88-24.45.75-7.02,1.88-13.54,3.39-19.56,1.5-6.02,3.5-12.53,6.02-19.56,3.5-10.03,6.14-17.92,7.9-23.7,1.75-5.76,2.88-10.27,3.39-13.54.49-3.26.49-5.64,0-7.15-.51-1.5-1.5-3.01-3.01-4.51-3.01-4.01-7.65-6.89-13.92-8.65-6.28-1.75-11.66-2.63-16.17-2.63-3.01-10.03-9.53-18.17-19.56-24.45-10.04-6.26-19.82-9.4-29.34-9.4-12.04,0-23.32,4.14-33.85,12.41-10.53,8.27-20.19,19.06-28.96,32.35-8.78,13.29-16.93,28.21-24.45,44.76-7.52,16.55-13.92,32.98-19.18,49.27-5.27,16.3-9.66,31.48-13.16,45.51-3.51,14.05-6.02,25.58-7.52,34.6-4.51,29.09-6.77,55.17-6.77,78.23,0,23.07.75,38.87,2.26,47.39,1,9.03,5.27,16.93,12.79,23.7,7.52,6.77,16.29,10.16,26.33,10.16,4.51,0,9.78-1.25,15.8-3.76,9.52-3.01,18.81-10.4,27.83-22.19,9.03-11.78,17.42-24.82,25.2-39.12,7.77-14.29,14.67-28.33,20.69-42.13,6.02-13.79,10.78-24.19,14.29-31.22,0,.51.25,5.27.75,14.29.49,9.03,1.38,19.31,2.63,30.84,1.25,11.54,3.13,23.2,5.64,34.98,2.5,11.79,6.02,20.69,10.53,26.71,4.01,5.52,8.52,9.29,13.54,11.28,5.01,2.01,10.03,3.01,15.04,3.01,5.51,0,10.4-1.13,14.67-3.39,4.26-2.26,6.89-4.89,7.9-7.9.49-3.01.25-5.14-.75-6.39-1.01-1.25-2.39-3.01-4.14-5.27-1.76-2.26-3.89-5.89-6.39-10.91-2.51-5.01-4.77-12.79-6.77-23.32-2.01-10.53-3.64-24.69-4.89-42.5-1.26-17.8-1.63-40.49-1.13-68.08.49-14.54,1-26.45,1.5-35.73ZM591.24,948.36c-3.76,11.04-8.65,24.33-14.67,39.87-6.02,15.55-13.05,32.61-21.06,51.15-8.03,18.56-16.06,36.61-24.07,54.16-8.03,17.56-15.93,33.73-23.7,48.52-7.78,14.8-14.42,26.46-19.93,34.98-3.51-29.58-2.76-60.18,2.26-91.77,5.01-31.59,12.28-61.31,21.82-89.14,9.52-27.83,20.56-52.4,33.1-73.72,12.53-21.31,24.82-36.23,36.86-44.76.49,1.5,1,4.51,1.5,9.03.49,4.51,1.25,8.78,2.26,12.79,1.5,10.04,2.88,16.68,4.14,19.93,1.25,3.27,3.13,6.15,5.64,8.65h.75c.49,2.52-1.13,9.29-4.89,20.31ZM932.38,1089.03c2,2.52,1.25,9.53-2.26,21.06-3.51,11.54-7.9,23.7-13.16,36.48-5.27,12.79-10.16,24.45-14.67,34.98-4.51,10.53-6.77,16.06-6.77,16.55-8.03,16.55-15.17,30.22-21.44,41-6.28,10.78-12.29,19.43-18.05,25.95-5.77,6.51-11.54,11.4-17.3,14.67-5.77,3.26-11.66,5.64-17.68,7.15-6.52,1.5-13.05,2.26-19.56,2.26-21.06,0-39.87-8.27-56.42-24.82-16.55-16.55-30.35-38.74-41.37-66.57-11.04-27.83-19.06-59.92-24.07-96.29-5.02-36.35-6.28-74.1-3.76-113.21,2.5-39.12,9.03-78.35,19.56-117.73,10.53-39.36,25.58-75.85,45.13-109.45,4.51-8.02,9.78-15.91,15.8-23.7,6.02-7.77,12.53-14.79,19.56-21.06,7.02-6.26,14.54-11.28,22.57-15.04,8.02-3.76,16.55-5.64,25.58-5.64,9.52,0,18.3,2.01,26.33,6.02,17.04,8.03,30.21,22.32,39.49,42.88,9.27,20.57,15.91,43.89,19.93,69.96,4.01,26.08,5.64,53.16,4.89,81.24-.75,28.09-2.63,53.92-5.64,77.48-3.01,23.58-6.65,43.14-10.91,58.67-4.27,15.55-8.4,23.82-12.41,24.82-1.01.51-2.52.75-4.51.75-5.02,0-10.66-1.5-16.93-4.51-6.28-3.01-10.16-6.51-11.66-10.53-1.5-2.5-2.01-5.51-1.5-9.03.49-3.5,2-9.27,4.51-17.3,4.01-14.54,7.26-30.34,9.78-47.39,2.5-17.04,4.25-34.47,5.27-52.28,1-17.8,1.25-35.6.75-53.41-.5-17.8-1.76-34.98-3.76-51.53-.5-4.51-1.63-11.03-3.38-19.56-1.76-8.52-4.02-17.3-6.77-26.33-2.76-9.03-5.64-17.3-8.65-24.82-3.01-7.52-6.28-12.28-9.78-14.29-10.53,2.01-21.57,9.29-33.1,21.82-11.54,12.54-22.7,28.96-33.47,49.27-10.79,20.31-20.44,44.01-28.96,71.09-8.53,27.08-14.8,56.17-18.81,87.26-4.02,31.1-5.39,63.69-4.14,97.79,1.25,34.11,6.39,68.21,15.42,102.31,7.02,26.08,14.92,47.9,23.7,65.45,8.77,17.55,18.92,30.34,30.47,38.36,2.5,1.5,4.01,2.26,4.51,2.26s1.75-.51,3.76-1.5c8.02-3.01,16.29-11.04,24.82-24.07,8.52-13.03,16.55-27.57,24.07-43.63,7.52-16.04,14.29-31.84,20.31-47.39,6.02-15.54,10.53-27.33,13.54-35.36,2.5-7.52,4.51-13.41,6.02-17.68,1.5-4.25,2.75-7.52,3.76-9.78,1-2.26,2-3.63,3.01-4.14,1-.49,2.5-1,4.51-1.5,6.02,0,12.28.51,18.81,1.5,6.51,1.01,11.53,4.51,15.04,10.53ZM1239.67,950.62c-11.79-11.53-25.71-20.31-41.75-26.33-10.53-5.01-20.31-7.52-29.34-7.52-11.54,0-20.19,3.89-25.95,11.66-5.77,7.78-10.04,17.18-12.79,28.21-2.76,11.04-4.64,22.57-5.64,34.6-1.01,12.04-2.52,22.07-4.51,30.09-1.01,0-1.76.13-2.26.38-.51.26-1.26.38-2.26.38-1.01-8.02-1.63-17.04-1.88-27.08-.26-10.03-4.14-22.57-11.66-37.61-7.03-11.53-16.93-21.93-29.71-31.22-12.79-9.27-26.46-13.92-41-13.92-9.03,0-17.18,1.76-24.45,5.27-7.28,3.51-13.67,7.41-19.18,11.66-5.52,4.27-10.04,8.4-13.54,12.41-3.51,4.02-6.02,6.52-7.52,7.52h-1.5c-6.52,0-11.41,3.64-14.67,10.91-3.27,7.28-6.15,14.42-8.65,21.44-3.51,11.54-5.9,24.58-7.15,39.12-1.26,14.55-1.39,29.22-.38,44.01,1,14.8,2.88,29.22,5.64,43.25,2.75,14.05,6.39,26.33,10.91,36.86,7.52,21.06,17.8,36.11,30.84,45.14,13.03,9.03,25.58,13.54,37.61,13.54,13.54,0,25.2-4.63,34.98-13.92,9.78-9.27,18.17-20.8,25.2-34.6,7.02-13.79,12.91-28.33,17.68-43.63,4.76-15.29,8.9-28.96,12.41-41,1.5-.49,3.5-.75,6.02-.75l3.76-.75c0,12.04.87,25.46,2.63,40.25,1.75,14.8,5.38,28.59,10.91,41.37,5.51,12.79,13.16,23.45,22.94,31.97,9.78,8.53,22.44,12.79,37.99,12.79,2.5,0,6.26-.49,11.28-1.5,12.04-4.51,22.81-14.79,32.35-30.84,9.52-16.04,17.04-34.34,22.57-54.91,5.51-20.56,8.9-41.62,10.16-63.19,1.25-21.56-.64-39.87-5.64-54.91-4.51-14.54-12.67-27.57-24.45-39.12ZM1070.79,1017.95c-2.52,22.32-7.28,44.26-14.29,65.82-7.03,21.57-15.17,40.75-24.45,57.55-9.29,16.81-17.94,26.96-25.95,30.47-6.52-10.03-12.04-21.93-16.55-35.73-4.51-13.79-7.78-27.95-9.78-42.5-2.01-14.54-2.63-28.83-1.88-42.88.75-14.03,2.88-26.33,6.39-36.86,1.5-4.51,4.63-10.53,9.4-18.05,4.76-7.52,10.4-15.05,16.93-22.57,6.51-7.52,13.16-14.03,19.93-19.56,6.77-5.51,13.16-8.27,19.18-8.27,7.52,0,13.03,5.52,16.55,16.55,5.51,15.05,7.02,33.73,4.51,56.04ZM1226.5,1049.17c-1.5,9.03-3.64,18.81-6.39,29.34-2.76,10.53-6.15,20.95-10.16,31.22-4.02,10.28-8.53,20.06-13.54,29.34-5.02,9.29-10.53,16.93-16.55,22.94-4.51-10.03-8.03-21.93-10.53-35.73-2.51-13.79-4.27-27.7-5.27-41.75-1.01-14.03-1.39-26.82-1.13-38.36.25-11.53.62-19.81,1.13-24.82,1-11.02,2.37-20.69,4.14-28.96,1.75-8.27,3.63-15.16,5.64-20.69,2-6.51,4.26-12.28,6.77-17.3,1.5-.49,4.01-.75,7.52-.75,9.52,0,17.17,3.14,22.94,9.4,5.76,6.28,10.16,14.18,13.16,23.7,3.01,9.53,4.51,19.82,4.51,30.84,0,11.04-.75,21.57-2.26,31.59ZM1454.43,909.25h-3.01c-.51,0-5.27,5.9-14.29,17.68-9.03,11.79-19.31,26.33-30.84,43.63-11.54,17.3-22.7,35.61-33.47,54.91-10.79,19.31-18.18,36.99-22.19,53.03,5.51,0,11.66-.62,18.43-1.88,6.77-1.25,13.16-2.63,19.18-4.14,6.02-1.5,11.53-2.88,16.55-4.14,5.01-1.25,8.27-1.88,9.78-1.88,5.51,0,11.4,3.14,17.68,9.4,6.26,6.28,9.4,12.17,9.4,17.68,0,3.01-1.13,5.27-3.38,6.77-2.26,1.5-4.64,2.76-7.15,3.76-22.57,7.03-45.39,10.53-68.45,10.53-6.52,0-12.04-.49-16.55-1.5-4.51-1-9.29-3.26-14.29-6.77,0,3.51-.13,7.9-.38,13.16-.26,5.27-.38,12.67-.38,22.19,0,9.53-.13,22.19-.38,37.99-.26,15.8-.38,36.24-.38,61.31-4.02,1-8.65,2.13-13.92,3.39-5.27,1.25-9.91,1.88-13.92,1.88-5.52,0-9.91-1.13-13.16-3.39-3.27-2.26-4.89-6.39-4.89-12.41-.51-3.01-.75-10.27-.75-21.82,0-11.53.12-24.82.38-39.87.25-15.05.62-30.21,1.13-45.51.49-15.29,1-27.95,1.5-37.99,4.01-72.71,9.27-138.91,15.8-198.59,3.01-27.57,5.64-49.65,7.9-66.2,2.26-16.55,4.14-29.34,5.64-38.36,2-10.53,3.5-18.05,4.51-22.57,2.5-2.5,5.76-3.76,9.78-3.76,4.51,0,9.4,1.26,14.67,3.76,5.27,2.52,9.14,5.27,11.66,8.27,2.5,2.01,4.14,3.89,4.89,5.64.75,1.76.87,4.89.38,9.4-.51,4.51-1.5,11.17-3.01,19.93-1.5,8.78-3.39,21.19-5.64,37.24-2.26,16.06-4.64,36.37-7.15,60.93-2.52,24.58-5.02,54.91-7.52,91.02,5.51-9.03,12.66-20.43,21.44-34.23,8.77-13.79,17.8-27.2,27.08-40.25,9.27-13.03,17.8-24.32,25.58-33.85,7.77-9.52,12.91-14.79,15.42-15.8,1-.49,2.5-.75,4.51-.75,6.02,0,11.91,3.01,17.68,9.03,5.76,6.02,9.4,11.04,10.91,15.04,2.5,7.03,2.88,11.79,1.13,14.29-1.76,2.52-4.4,3.76-7.9,3.76ZM1502.57,1046.91c-3.01,13.54-2.52,23.58,1.5,30.09,3.01,4.51,9.4,8.03,19.18,10.53,9.78,2.52,20.43,5.27,31.97,8.28,11.53,3.01,23.19,6.65,34.98,10.91,11.78,4.27,20.93,10.16,27.46,17.68,9.03,10.04,11.28,18.18,6.77,24.45-4.51,6.28-12.67,11.28-24.45,15.04-11.79,3.76-25.71,6.39-41.75,7.9-16.06,1.5-30.84,2.26-44.38,2.26-4.02,0-7.03-.25-9.03-.75-2.01-.49-4.27-1.25-6.77-2.26-11.54-7.02-17.56-13.92-18.05-20.69-.5-6.77,1.5-10.16,6.02-10.16,2.5,0,7.02-.12,13.54-.38,6.51-.25,14.03-.62,22.57-1.13,8.52-.49,17.3-1.38,26.33-2.63,9.03-1.25,16.8-2.88,23.32-4.89-10.53-2.5-20.95-5.14-31.22-7.9-10.28-2.75-20.06-6.26-29.34-10.53-9.29-4.25-17.81-9.65-25.58-16.17-7.78-6.51-14.17-14.79-19.18-24.82-7.03-13.03-8.91-27.2-5.64-42.5,3.26-15.29,9.27-30.84,18.05-46.64,8.77-15.8,19.56-31.09,32.35-45.89,12.79-14.79,25.2-27.95,37.24-39.49,12.04-11.53,22.81-20.8,32.35-27.83,9.52-7.02,15.54-10.78,18.05-11.28,8.52,0,16.04,2.52,22.57,7.52,6.51,5.02,9.78,12.29,9.78,21.82,0,7.03-2.51,10.53-7.52,10.53-.5,0-1.01-.12-1.5-.38-.51-.25-1.26-.38-2.26-.38-3.01,0-8.78,3.64-17.3,10.91-8.53,7.28-17.81,16.3-27.83,27.08-10.04,10.79-19.93,22.32-29.71,34.6-9.78,12.29-17.68,23.2-23.7,32.72-9.53,16.06-15.8,30.84-18.81,44.38Z" fill="#fff"/>
  </g>
</svg>